<svg xmlns="http://www.w3.org/2000/svg" width="250" height="160"><defs><filter id="a" width="120.3%" height="176.1%" x="-10.2%" y="-38%" filterUnits="objectBoundingBox"><feOffset dy="1" in="SourceAlpha" result="shadowOffsetOuter1"/><feGaussianBlur in="shadowOffsetOuter1" result="shadowBlurOuter1" stdDeviation="4"/><feColorMatrix in="shadowBlurOuter1" result="shadowMatrixOuter1" values="0 0 0 0 0 0 0 0 0 0 0 0 0 0 0 0 0 0 0.16 0"/><feMerge><feMergeNode in="shadowMatrixOuter1"/><feMergeNode in="SourceGraphic"/></feMerge></filter><filter id="b" width="167.3%" height="149.4%" x="-33.6%" y="-26.5%" filterUnits="objectBoundingBox"><feOffset dy="1" in="SourceAlpha" result="shadowOffsetOuter1"/><feGaussianBlur in="shadowOffsetOuter1" result="shadowBlurOuter1" stdDeviation="4"/><feColorMatrix in="shadowBlurOuter1" result="shadowMatrixOuter1" values="0 0 0 0 0 0 0 0 0 0 0 0 0 0 0 0 0 0 0.16 0"/><feMerge><feMergeNode in="shadowMatrixOuter1"/><feMergeNode in="SourceGraphic"/></feMerge></filter></defs><g fill="none" fill-rule="evenodd"><path fill="#FFF" stroke="#FFF" stroke-linecap="round" stroke-linejoin="round" stroke-width=".938" d="M105.655 125.02c-9.802 8.491-26.824 16.96-51.079 25.423l-1.334.465.791-1.17c5.91-8.745 8.917-16.984 9.034-24.72C28.755 124.924.969 97.079.969 62.745.969 28.35 28.85.469 63.244.469h106.075c34.393 0 62.275 27.881 62.275 62.275 0 34.393-27.882 62.275-62.275 62.275h-63.664z"/><g filter="url(#a)" transform="translate(30.5 40.313)"><path fill="#026CDF" d="M3.75 0h30a3.75 3.75 0 013.75 3.75v38.438a3.75 3.75 0 01-3.75 3.75h-30A3.75 3.75 0 010 42.188V3.75A3.75 3.75 0 013.75 0z"/><path d="M18.75 15v7.5m7.5-2.812l-7.5 2.812m-7.5-2.812l7.5 2.812M13.125 30l5.625-7.5m5.625 7.5l-5.625-7.5" stroke="#FFF" stroke-linecap="round" stroke-width="3.75"/><path fill="#026CDF" d="M48.75 0h30a3.75 3.75 0 013.75 3.75v38.438a3.75 3.75 0 01-3.75 3.75h-30a3.75 3.75 0 01-3.75-3.75V3.75A3.75 3.75 0 0148.75 0zm45 0h30a3.75 3.75 0 013.75 3.75v38.438a3.75 3.75 0 01-3.75 3.75h-30a3.75 3.75 0 01-3.75-3.75V3.75A3.75 3.75 0 0193.75 0zm45 0h29.063a3.75 3.75 0 013.75 3.75v38.438a3.75 3.75 0 01-3.75 3.75H138.75a3.75 3.75 0 01-3.75-3.75V3.75A3.75 3.75 0 01138.75 0z"/><path d="M63.75 15v7.5m7.5-2.812l-7.5 2.812m-7.5-2.812l7.5 2.812M58.125 30l5.625-7.5m5.625 7.5l-5.625-7.5M108.75 15v7.5m7.5-2.812l-7.5 2.812m-7.5-2.812l7.5 2.812m-5.625 7.5l5.625-7.5m5.625 7.5l-5.625-7.5M140.625 39.375h25.313" stroke="#FFF" stroke-linecap="round" stroke-width="3.75"/></g><g stroke-linecap="round" stroke-linejoin="round" filter="url(#b)" transform="translate(186.125 69.375)"><path stroke="#F2BD2A" stroke-width="7.5" d="M12.188 23.438V15c0-8.284 6.715-15 15-15 8.284 0 15 6.716 15 15v8.438"/><path fill="#FEE49D" stroke="#FEE49D" stroke-width=".938" d="M-.469 76.874v-51.56a4.22 4.22 0 014.228-4.22h46.857a4.226 4.226 0 014.228 4.22v51.56a4.22 4.22 0 01-4.228 4.22H3.76a4.226 4.226 0 01-4.228-4.22z"/><path fill="#F2BD2A" stroke="#F2BD2A" stroke-width=".938" d="M22.969 62.344h8.437L29.063 48.75h-3.75z"/><path fill="#F2BD2A" stroke="#F2BD2A" stroke-width=".938" d="M27.188 51.094a6.094 6.094 0 110-12.188 6.094 6.094 0 010 12.188z"/></g></g></svg>