<svg fill="#fff" xmlns="http://www.w3.org/2000/svg" xmlns:xlink="http://www.w3.org/1999/xlink" width="15" height="28" viewBox="0 0 21 40"><defs><path id="a" d="M289.209 633.998h5.458l1.3-6.226 8.128-2.772-1.854 8.998H309l-1.18 5.764h-6.781l-2.756 13.242a12.75 12.75 0 00-.339 2.949c0 1.822 1.186 2.936 2.886 2.936 1.344 0 2.704-.297 3.657-.69l-1.289 6.096c-1.31.306-2.773.705-4.068.705-5.128 0-8.748-2.09-8.748-7.932 0-2.349.456-4.644.96-7.057l2.145-10.249H288l1.209-5.764z"/></defs><use fill-rule="evenodd" transform="translate(-288 -625)" xlink:href="#a"/></svg>